<svg width="28" height="28" viewBox="0 0 28 28" fill="none" xmlns="http://www.w3.org/2000/svg">
<g id="Icons 28px">
<path id="Union" fill-rule="evenodd" clip-rule="evenodd" d="M17.5643 3.68749L17.5549 3.683C16.8644 3.34076 16.1679 3 14.0964 3C12.0158 3 11.3223 3.34375 10.6288 3.6875C6.46762 5.40625 5.77403 5.75 4.38708 9.53125C3.11957 12.9869 2.72062 18.1651 3.19075 21.9174C3.24258 22.3311 3.2685 22.5379 3.40194 22.6942C3.44356 22.7429 3.49793 22.7906 3.55185 22.8255C3.72474 22.9375 3.94602 22.9375 4.3886 22.9375H5.21927C5.73892 22.9375 5.99875 22.9375 6.1809 22.8065C6.23981 22.7642 6.29144 22.7131 6.33429 22.6548C6.46678 22.4745 6.46732 22.216 6.4684 21.6991C6.4736 19.2111 6.51319 18.1977 6.81438 16.4062C7.03812 15.0754 7.26187 13.8877 7.48561 12.8432C7.59637 12.3261 7.65174 12.0676 7.73996 12.049C7.76584 12.0436 7.79389 12.0458 7.81857 12.0553C7.90271 12.0874 7.91614 12.353 7.94298 12.8841C8.00313 14.0742 7.97613 13.8648 8.02804 15.0312C8.11473 16.9792 8.20142 18.9271 8.20142 21.2188C8.20142 23.625 8.54818 25 14.0964 25C19.6446 25 19.9913 23.625 19.9913 21.2188C19.9913 21.0965 19.9918 20.9752 19.9928 20.8548C19.9947 20.6107 19.9957 20.4886 19.9331 20.4274C19.9126 20.4073 19.8908 20.3932 19.864 20.3826C19.7823 20.3503 19.6666 20.4016 19.435 20.5041C19.1465 20.6319 18.8671 20.7312 18.6017 20.775C18.3477 20.817 18.067 20.8168 17.7782 20.7254C17.4922 20.6348 17.2753 20.4789 17.1124 20.3275C16.5671 19.8208 16.0704 19.1238 15.7271 18.4755C15.5461 18.1337 15.3802 17.6375 15.5928 17.0754C15.7673 16.6142 16.1402 16.2918 16.4287 16.0675C16.8284 15.7567 17.258 15.4835 17.6803 15.2044C18.2348 14.838 18.824 14.4888 19.3409 14.0637C19.4464 13.977 19.4991 13.9336 19.5398 13.866C19.5522 13.8454 19.5655 13.8183 19.5742 13.7959C19.6028 13.7224 19.605 13.6477 19.6095 13.4984C19.6165 13.2671 19.6254 12.9318 19.6325 12.5357C19.6403 12.1017 19.6442 11.8847 19.7198 11.8476C19.7429 11.8363 19.7679 11.8316 19.7935 11.8338C19.8776 11.8411 19.9607 12.0418 20.127 12.4432C20.2432 12.7238 20.3627 13.0029 20.4886 13.2795C20.9464 14.2842 20.6328 14.4929 18.2578 16.0625C17.0934 16.832 16.5807 17.1709 16.5372 17.5611C16.4739 18.13 17.489 19.5152 18.0661 19.7329C18.4852 19.8911 19.0921 19.5599 20.8043 18.6258C21.0812 18.4748 21.3869 18.308 21.7254 18.125C25.5398 16.0625 25.5398 14.6875 24.1527 10.5625C22.7657 6.43749 22.0722 5.74999 20.6851 5.06249C19.8726 4.65977 19.1791 4.37499 18.6045 4.13908C18.1983 3.97227 17.8515 3.82988 17.5643 3.68749ZM11.8416 5.39836C11.7069 5.45921 11.6395 5.48963 11.6197 5.54421C11.6135 5.56123 11.6107 5.5801 11.6117 5.59816C11.6149 5.65608 11.6723 5.70578 11.787 5.80519C14.0092 7.73057 14.1835 7.73057 16.4057 5.80519C16.5205 5.70578 16.5778 5.65607 16.581 5.59816C16.582 5.5801 16.5792 5.56123 16.573 5.54421C16.5532 5.48963 16.4859 5.45921 16.3511 5.39836C16.1881 5.32474 16.022 5.25945 15.8457 5.21576C15.5402 5.14005 15.0267 5.0625 14.0964 5.0625C13.1661 5.0625 12.6525 5.14005 12.347 5.21576C12.1708 5.25945 12.0046 5.32474 11.8416 5.39836Z" fill="black"/>
</g>
</svg>
