<svg width="14" height="24" viewBox="0 0 14 24" fill="none" xmlns="http://www.w3.org/2000/svg">
<g id="Group 12">
<path id="Subtract" fill-rule="evenodd" clip-rule="evenodd" d="M7.08809 6.66675C3.87223 6.66675 2.54664 7.98932 1.01692 9.51557L0.897785 9.63437C-0.287694 10.8158 -0.310774 12.1819 0.897785 17.3031C2.47934 24.0001 2.87473 24.0001 6.17375 24.0001C9.38961 24.0001 10.7152 22.6775 12.2449 21.1513L12.3641 21.0325C13.7453 19.6563 13.5644 18.4465 12.3641 13.3637C10.7825 6.66675 10.3871 6.66675 7.08809 6.66675ZM10.2859 10.7092C9.53162 8.2563 9.48732 8.2563 7.35137 8.2563L6.14443 8.25482C4.69344 8.25482 4.5468 8.75839 5.34585 11.3572C6.10003 13.8101 6.14443 13.8101 8.28038 13.8101L9.48732 13.8116C10.9383 13.8116 11.085 13.308 10.2859 10.7092ZM9.23481 14.9634C10.4566 14.9634 10.4819 14.9634 10.9133 16.3664C11.3704 17.8529 11.2865 18.141 10.4566 18.141L9.7662 18.1402C8.54444 18.1402 8.51905 18.1402 8.08767 16.7371C7.63061 15.2506 7.71449 14.9626 8.54444 14.9626L9.23481 14.9634Z" fill="black"/>
<path id="Subtract_2" d="M2.93603 4.25492C2.75039 3.68848 2.59628 3.14813 2.45539 2.65414C1.96995 0.952029 1.64151 -0.199584 0.721298 0.0288468C-0.465972 0.323572 -0.00970864 2.13728 0.815659 4.65547C1.21502 5.87391 1.10572 6.20706 0.996961 6.53859C0.945651 6.69499 0.894459 6.85104 0.896847 7.0995C0.899111 7.33497 0.86347 7.71055 1.1617 7.7764C1.31811 7.81094 1.48182 7.67894 1.80924 7.41493C2.15237 7.13826 2.52187 6.87731 2.92898 6.64772C3.06553 6.57071 3.7775 6.23879 3.78596 6.23425C3.96333 6.13906 3.98598 5.78652 3.82224 5.66942C3.80854 5.65962 3.24509 5.19797 2.93603 4.25492Z" fill="black"/>
</g>
</svg>
