<svg width="28" height="28" viewBox="0 0 28 28" fill="none" xmlns="http://www.w3.org/2000/svg">
<g id="Icons 28px">
<path id="Union" fill-rule="evenodd" clip-rule="evenodd" d="M21.5997 6.78125C21.5997 7.38018 21.5055 7.91839 21.2455 8.38819C21.1345 8.58872 21.079 8.68899 21.0979 8.74667C21.1045 8.76685 21.112 8.77998 21.1261 8.79573C21.1663 8.84076 21.2687 8.84098 21.4737 8.84144L22.5252 8.84375C24.6569 8.84375 25.5307 10.1952 25.8474 12.1105L25.8497 12.1244L25.8516 12.1383C26.0168 13.3376 26.2432 15.4502 25.2867 17.2772C24.6703 18.4543 23.6376 19.393 22.069 19.954C21.538 20.1439 21.2726 20.2389 21.1349 20.3922C21.085 20.4478 21.0546 20.4915 21.0195 20.5577C20.9228 20.7406 20.9228 20.988 20.9228 21.483V21.5627H20.9124C20.7755 23.7189 19.2339 25 12.7999 25C6.36579 25 4.8242 23.7189 4.68736 21.5627H4.67691V9.80026C4.67691 9.61374 4.67691 9.52048 4.66354 9.42456C4.65417 9.35736 4.66088 9.39571 4.64688 9.32935C4.6269 9.23462 4.48118 8.8313 4.18973 8.02467C4.05313 7.64661 4 7.23105 4 6.78125C4 4.41797 5.46664 3 12.7999 3C20.1331 3 21.5997 4.41797 21.5997 6.78125ZM19.569 6.78125C19.569 6.29753 19.4768 6.06956 19.0436 5.85016C18.2214 5.43377 16.4465 5.0625 12.7999 5.0625C9.15323 5.0625 7.37837 5.43377 6.55615 5.85016C6.12293 6.06956 6.03074 6.29753 6.03074 6.78125C6.03074 7.26497 6.12293 7.49294 6.55615 7.71234C7.37837 8.12873 9.15323 8.5 12.7999 8.5C16.4465 8.5 18.2214 8.12873 19.0436 7.71234C19.4768 7.49294 19.569 7.26497 19.569 6.78125ZM20.9228 17.8363C20.9228 17.9674 20.9228 18.033 20.9594 18.0727C20.9707 18.085 20.9853 18.0958 21.0003 18.103C21.0487 18.1262 21.1084 18.1067 21.2278 18.0677C22.5048 17.651 23.1482 16.9687 23.4937 16.3088C24.1095 15.1325 24.0076 13.6426 23.8424 12.4381C23.6835 11.4813 23.5962 10.9062 22.5252 10.9062H21.532C21.2782 10.9062 21.1513 10.9062 21.0623 10.9719C21.0336 10.9931 21.0083 11.0188 20.9875 11.0479C20.9228 11.1383 20.9228 11.2672 20.9228 11.525V17.8363Z" fill="black"/>
</g>
</svg>
