<svg width="28" height="28" viewBox="0 0 28 28" fill="none" xmlns="http://www.w3.org/2000/svg">
<g id="Icons 28px">
<g id="Vector">
<path d="M23.139 18.551C23.1393 18.6343 23.1395 18.6759 23.154 18.7047C23.1687 18.7338 23.1914 18.7552 23.2211 18.7681C23.2506 18.7809 23.2895 18.7785 23.3672 18.7738C23.3965 18.772 23.4262 18.7701 23.4561 18.7681L23.5031 18.765C23.6757 18.7536 23.8429 18.7426 23.9998 18.7344C24.1649 18.7257 24.2474 18.7214 24.2853 18.6696C24.2965 18.6544 24.3055 18.6336 24.3092 18.615C24.3215 18.5518 24.2739 18.4938 24.1789 18.3778C23.9247 18.0674 23.6021 17.8325 23.3363 17.8325C23.1752 17.8325 23.1113 18.0244 23.124 18.1863C23.1335 18.3082 23.1386 18.4302 23.139 18.551Z" fill="black"/>
<path d="M19.7289 17.2998C19.6448 17.3764 19.6028 17.4147 19.5939 17.4582C19.5909 17.4727 19.5903 17.4862 19.5919 17.501C19.5968 17.5451 19.6318 17.5835 19.7017 17.6602C20.0004 17.9878 20.2688 18.2163 20.5489 18.3826C20.8895 18.5847 21.2909 18.718 21.8809 18.7728C21.9786 18.7819 22.0274 18.7864 22.0667 18.7608C22.0785 18.7531 22.0911 18.7414 22.0998 18.7302C22.1285 18.693 22.1283 18.6447 22.1277 18.5481C22.123 17.6785 21.8126 16.715 21.3077 16.4212C21.1511 16.3301 20.9406 16.3261 20.7096 16.3875C20.6231 16.4105 20.5798 16.422 20.5022 16.467C20.4807 16.4794 20.4477 16.5015 20.4281 16.5167C20.357 16.5716 20.3019 16.6439 20.1919 16.7887C20.0504 16.9748 19.8959 17.1476 19.7289 17.2998Z" fill="black"/>
<path d="M16.9674 13.2173C16.8617 13.2609 16.8088 13.2827 16.7858 13.3245C16.7784 13.3378 16.7733 13.3525 16.7708 13.3676C16.7627 13.4146 16.7892 13.4629 16.8422 13.5595C17.1893 14.1925 17.6693 14.904 18.3511 15.8855C18.4958 16.0938 18.6316 16.2865 18.7599 16.4648C18.8194 16.5475 18.8492 16.5888 18.8954 16.6013C18.9092 16.605 18.9268 16.6066 18.941 16.6055C18.9887 16.6017 19.0226 16.5693 19.0904 16.5044C19.9573 15.6747 20.5597 13.8312 20.0931 13.0168C19.8753 12.6366 19.2228 12.49 18.5209 12.5577C18.4057 12.5688 18.3482 12.5743 18.2395 12.6036C18.2047 12.613 18.1664 12.6251 18.1325 12.6374C18.0267 12.6756 17.8909 12.7523 17.6195 12.9055C17.429 13.013 17.2174 13.114 16.9674 13.2173Z" fill="black"/>
<path d="M16.1185 9.30595C16.0072 9.32092 15.9515 9.3284 15.9206 9.35619C15.9098 9.36585 15.9024 9.37481 15.895 9.38723C15.8735 9.42294 15.876 9.47403 15.8811 9.57622C15.9378 10.7123 16.0504 11.4974 16.2534 12.1793C16.2693 12.2328 16.2773 12.2596 16.2953 12.2811C16.3158 12.3056 16.3516 12.325 16.3831 12.3287C16.411 12.3319 16.4357 12.3244 16.4851 12.3093C17.4306 12.0212 18.5343 10.9978 18.5343 10.2453C18.5343 9.91325 18.1963 9.56969 17.7343 9.32523C17.6283 9.26919 17.5754 9.24117 17.4058 9.20167C17.3483 9.18826 17.294 9.17925 17.2352 9.17336C17.062 9.15601 16.766 9.20327 16.1739 9.29779C16.1555 9.30074 16.137 9.30346 16.1185 9.30595Z" fill="black"/>
<path d="M13.9824 2.17868C13.8741 2.23467 13.82 2.26267 13.8051 2.32248C13.8008 2.3398 13.8 2.36234 13.8032 2.37992C13.8141 2.4406 13.878 2.47924 14.0058 2.55653C14.475 2.84035 14.8809 3.2512 15.1883 3.81092C15.3073 4.02742 15.4088 4.2613 15.4938 4.51262C15.5111 4.56375 15.5197 4.58931 15.5364 4.60909C15.5417 4.61531 15.5483 4.62184 15.5547 4.62695C15.5748 4.64322 15.5973 4.65025 15.6425 4.6643C17.0252 5.09478 16.2491 2.7222 15.2281 2.12812C14.8819 1.92672 14.3719 1.97729 13.9824 2.17868Z" fill="black"/>
<path d="M15.9868 5.73476C15.9231 5.73588 15.8912 5.73644 15.8716 5.74301C15.8216 5.75975 15.7928 5.79232 15.782 5.84425C15.7777 5.86464 15.7807 5.89569 15.7867 5.9578C15.8167 6.26854 15.8314 6.59672 15.8314 6.94238C15.8314 7.34349 15.8333 7.71561 15.8377 8.06211C15.8389 8.16186 15.8396 8.21174 15.8722 8.24946C15.8815 8.26012 15.8968 8.27257 15.9092 8.27936C15.9527 8.3034 15.9948 8.29462 16.079 8.27706C16.8616 8.11372 17.8585 7.22935 17.8585 6.58969C17.8585 6.29392 17.5233 5.98672 17.089 5.79026C17.0449 5.7703 17.1551 5.8202 17.1037 5.80178C16.9429 5.74425 16.9078 5.73699 16.7374 5.72608C16.6829 5.72259 16.4509 5.72665 15.9868 5.73476Z" fill="black"/>
<path d="M5.07729 17.1115C5.30868 17.1487 5.42437 17.1674 5.52943 17.1045C5.56069 17.0858 5.59486 17.0562 5.61793 17.0279C5.69549 16.9327 5.69457 16.7963 5.69274 16.5234C5.68817 15.8453 5.71973 15.1628 5.78325 14.4872C5.81371 14.1633 5.82894 14.0013 5.76434 13.9016C5.742 13.8672 5.71987 13.8431 5.6875 13.818C5.59386 13.7454 5.42867 13.7483 5.09829 13.7541C4.8683 13.7581 4.61959 13.7581 4.35082 13.7581C3 13.7581 3 14.4387 3 15.1193C3 16.2691 3.96434 16.9323 5.07729 17.1115Z" fill="black"/>
<path fill-rule="evenodd" clip-rule="evenodd" d="M6.62967 5.91706C6.37655 5.85977 6.24998 5.83113 6.1767 5.74347C6.15473 5.7172 6.13325 5.6809 6.12075 5.64893C6.07907 5.54229 6.10715 5.44179 6.16332 5.2408C6.41428 4.34273 7.13431 4.02918 9.07829 3.53943C11.7799 2.85881 14.8193 2.17818 14.8193 6.94256C14.8193 8.73288 14.8558 10.0081 14.9888 11.0344V12.2172C14.9888 13.2717 14.5789 14.5586 13.4102 16.5985C13.11 17.1223 12.6931 17.5445 12.257 17.7619C11.837 17.9711 11.4113 17.9898 10.9966 17.7485C10.6662 17.5563 10.5313 17.4585 10.4775 17.349C10.4539 17.3008 10.3833 17.1173 10.6876 16.5863L11.3764 15.3839C11.7052 14.8102 12.0293 14.2445 12.217 13.542C12.3798 12.9324 12.4352 12.2434 12.3459 11.3643C12.3308 11.2162 12.3233 11.1422 12.2896 11.0811C12.2461 11.0022 12.1659 10.9396 12.0792 10.9169C12.0121 10.8994 11.9349 10.9112 11.7807 10.9349C11.6244 10.9589 11.5463 10.9709 11.4904 11.0039C11.4131 11.0495 11.3619 11.1158 11.3369 11.2025C11.3188 11.2651 11.3268 11.3496 11.343 11.5184C11.415 12.2726 11.3608 12.8197 11.2387 13.2766C11.0882 13.8398 10.8277 14.2999 10.4856 14.8969L9.81017 16.0758C9.43902 16.7236 9.32317 17.2997 9.56937 17.8015C9.77411 18.2188 10.1888 18.4585 10.4483 18.6085L10.49 18.6326C11.2451 19.0719 12.0345 19.0116 12.706 18.677C13.3614 18.3505 13.9123 17.764 14.2876 17.109C15.0502 15.7779 15.5375 14.6944 15.7905 13.7396C16.1893 14.5334 16.7464 15.3562 17.5209 16.4713C19.4706 19.278 20.2717 20.0014 23.524 19.7868C24.4003 19.729 24.8384 19.7001 24.9461 19.8681C24.9787 19.919 24.9973 19.9778 24.9999 20.0384C25.0083 20.2382 24.648 20.4611 23.9275 20.9069C21.8805 22.1734 20.0465 22.8045 16.433 22.9183C16.2123 22.9252 16.102 22.9287 16.0176 22.9908C15.9922 23.0095 15.9648 23.037 15.946 23.0624C15.8836 23.1468 15.8797 23.245 15.872 23.4413C15.8529 23.9213 15.9152 24.3259 15.9668 24.6616C16.1111 25.6001 16.1726 26 14.1447 26C11.2406 26 10.8768 25.5852 12.0287 24.3608C12.1001 24.2849 12.1357 24.247 12.1411 24.2024C12.1429 24.1882 12.1423 24.1732 12.1395 24.1592C12.1308 24.1152 12.0947 24.0822 12.0225 24.0163C11.9932 23.9896 11.9637 23.963 11.9341 23.9363C11.5655 23.6038 11.1863 23.2617 11.1167 22.5975C11.1081 22.5155 11.1038 22.4745 11.0867 22.4474C11.0805 22.4378 11.0751 22.431 11.067 22.4231C11.0442 22.4007 11.0082 22.3891 10.9362 22.366C10.8306 22.332 10.7271 22.2967 10.6256 22.2598C10.4435 22.1938 10.3525 22.1608 10.266 22.175C10.2388 22.1795 10.2094 22.1883 10.1841 22.1996C10.104 22.2352 10.0544 22.3013 9.95513 22.4335C9.56723 22.9501 9.37701 23.4445 9.22548 23.8384C8.8848 24.7239 8.73966 25.1012 6.98341 24.0794C4.46838 22.6161 4.35918 22.0737 5.9642 21.5936C6.06369 21.5639 6.11343 21.549 6.14022 21.5131C6.14874 21.5017 6.15568 21.4884 6.16022 21.4749C6.17451 21.4324 6.15959 21.3856 6.12976 21.2922C6.11766 21.2543 6.10531 21.2164 6.09293 21.1784C5.87347 20.5044 5.64502 19.8029 6.65303 18.7587C6.77229 18.6351 6.83192 18.5734 6.85675 18.5115C6.86604 18.4883 6.87056 18.4729 6.87526 18.4484C6.8878 18.3828 6.87128 18.2993 6.83823 18.1324C6.75544 17.7141 6.71436 17.2732 6.71436 16.8116C6.71436 13.935 7.03606 12.7875 7.31691 11.7857C7.51063 11.0948 7.68491 10.4731 7.72075 9.40119C7.72649 9.22954 7.72936 9.14371 7.69439 9.06918C7.68292 9.04473 7.66867 9.02186 7.65182 9.00083C7.60041 8.93669 7.51591 8.89906 7.3469 8.82381C6.36856 8.38819 5.89671 8.09438 5.93069 7.41948C5.94035 7.22774 5.94518 7.13187 6.03022 7.0408C6.05315 7.01624 6.09521 6.9847 6.12514 6.96962C6.23614 6.9137 6.35127 6.94217 6.58154 6.99913L6.66403 7.01955C7.94011 7.33567 9.5654 7.73829 10.0467 6.80495C10.0965 6.70828 10.1215 6.65994 10.1095 6.63068C10.1054 6.62066 10.1007 6.61392 10.0928 6.60657C10.0697 6.58514 10.0007 6.59397 9.86287 6.61165C9.76264 6.62449 9.63955 6.62683 9.4886 6.6145C8.88384 6.56508 8.29401 6.38785 7.70718 6.21152C7.4196 6.1251 7.13274 6.03891 6.84519 5.96807C6.77379 5.95049 6.7019 5.9334 6.62967 5.91706ZM11.368 5.20612C11.1714 5.94573 11.3233 6.25098 11.7582 6.36842C12.1931 6.48586 12.4761 6.29805 12.6728 5.55843C12.8695 4.81882 12.7176 4.51356 12.2826 4.39612C11.8477 4.27869 11.5647 4.4665 11.368 5.20612Z" fill="black"/>
</g>
</g>
</svg>
