<svg width="28" height="28" viewBox="0 0 28 28" fill="none" xmlns="http://www.w3.org/2000/svg">
<g id="Icons 28px">
<path id="Union" fill-rule="evenodd" clip-rule="evenodd" d="M4.41314 23.5869C7.07615 26.2499 9.20657 27.3151 12.9348 23.5869C14 22.5217 14.5326 21.4564 15.0652 20.3912C15.5978 19.326 16.1304 18.2608 17.1956 17.1956C18.2608 16.1304 19.326 15.5978 20.3912 15.0652C21.4564 14.5326 22.5217 14 23.5869 12.9348C27.3151 9.20657 26.2499 7.07615 23.5869 4.41314C20.9238 1.75012 18.7934 0.68491 15.0652 4.41314C14 5.47834 12.9348 6.01095 11.8696 6.54355C10.8044 7.07615 9.73917 7.60876 8.67396 8.67396C7.60876 9.73917 7.07615 10.8044 6.54355 11.8696C6.01095 12.9348 5.47834 14 4.41314 15.0652C0.68491 18.7934 1.75012 20.9238 4.41314 23.5869ZM11.3438 21.9959C9.63795 23.7017 8.81117 23.776 8.49839 23.7447C8.03793 23.6987 7.34246 23.3342 6.00413 21.9959C4.66579 20.6575 4.3013 19.9621 4.25525 19.5016C4.22398 19.1888 4.29827 18.3621 6.00413 16.6562C6.3096 16.3507 6.58025 16.0444 6.82237 15.7409C6.99395 15.5259 7.07974 15.4183 7.14313 15.4123C7.16747 15.41 7.17928 15.4113 7.2026 15.4187C7.26329 15.4379 7.3317 15.5756 7.46851 15.8509C7.73132 16.3799 8.24182 16.9666 9.05695 17.7817C10.4723 19.1971 11.4285 20.1532 12.2979 19.9797C12.5591 19.9276 12.6897 19.9015 12.7174 19.9253C12.728 19.9344 12.7318 19.9397 12.7374 19.9525C12.7519 19.986 12.6984 20.0841 12.5914 20.2801C12.2451 20.9152 11.8881 21.4516 11.3438 21.9959ZM19.9797 12.2979C19.9276 12.5591 19.9015 12.6897 19.9253 12.7174C19.9344 12.728 19.9397 12.7318 19.9525 12.7374C19.986 12.7519 20.0841 12.6984 20.2801 12.5914C20.9152 12.2451 21.4516 11.8881 21.9959 11.3438C23.7017 9.63795 23.776 8.81117 23.7447 8.49839C23.6987 8.03793 23.3342 7.34246 21.9959 6.00413C20.6575 4.66579 19.9621 4.3013 19.5016 4.25525C19.1888 4.22398 18.3621 4.29827 16.6562 6.00413C16.3507 6.3096 16.0444 6.58025 15.7409 6.82237C15.5259 6.99395 15.4183 7.07974 15.4123 7.14313C15.41 7.16747 15.4113 7.17928 15.4187 7.2026C15.4379 7.26329 15.5756 7.3317 15.8509 7.46851C16.3799 7.73132 16.9666 8.24182 17.7817 9.05695C19.1971 10.4723 20.1532 11.4285 19.9797 12.2979ZM13.5911 10.9398C13.884 10.6469 13.9179 10.206 13.6669 9.9549C13.4158 9.70385 12.9749 9.73777 12.682 10.0307C12.3891 10.3236 12.3552 10.7645 12.6062 11.0156C12.8573 11.2666 13.2982 11.2327 13.5911 10.9398ZM11.0152 12.6066C11.2663 12.8576 11.2324 13.2986 10.9395 13.5915C10.6466 13.8843 10.2056 13.9183 9.95457 13.6672C9.70352 13.4162 9.73744 12.9752 10.0303 12.6823C10.3232 12.3894 10.7642 12.3555 11.0152 12.6066ZM13.2881 14.8794C13.5391 15.1305 13.5052 15.5714 13.2123 15.8643C12.9194 16.1572 12.4785 16.1911 12.2274 15.9401C11.9764 15.689 12.0103 15.2481 12.3032 14.9552C12.5961 14.6623 13.037 14.6283 13.2881 14.8794ZM15.9397 12.2277C16.1908 12.4788 16.1569 12.9198 15.864 13.2126C15.5711 13.5055 15.1301 13.5395 14.8791 13.2884C14.628 13.0374 14.6619 12.5964 14.9548 12.3035C15.2477 12.0106 15.6887 11.9767 15.9397 12.2277Z" fill="black"/>
</g>
</svg>
