<svg width="40" height="40" viewBox="0 0 40 40" fill="none" xmlns="http://www.w3.org/2000/svg">
<path d="M31.9715 28.5853C31.9455 29.2172 31.9326 29.5332 32.1005 29.6594C32.1503 29.6968 32.2153 29.7245 32.2768 29.7345C32.4842 29.7681 32.6887 29.5548 33.0978 29.1281C33.1614 29.0618 33.2246 28.9943 33.2874 28.9258C35.4353 26.5808 37.0001 23.0388 37.0001 17.9999C37.0001 15.0836 36.7569 12.8267 36.1433 11.262C35.465 9.53232 33.9816 8.24048 32.037 8.44883C31.1776 8.54091 30.334 8.90429 29.5424 9.38242C29.1136 9.64146 28.8991 9.77097 28.8114 9.98515C28.7828 10.055 28.7661 10.1266 28.7609 10.2019C28.7448 10.4328 28.9059 10.6845 29.228 11.188C29.4964 11.6074 29.739 12.0463 29.9583 12.503C30.18 12.9648 30.2909 13.1957 30.4503 13.2715C30.5072 13.2986 30.5501 13.3107 30.6128 13.3173C30.7884 13.3358 31.0075 13.1942 31.4457 12.911C31.84 12.6561 32.1205 12.5236 32.3017 12.4644C32.3347 12.5251 32.375 12.609 32.4194 12.7223C32.7433 13.5482 33.0001 15.1663 33.0001 17.9999C33.0001 19.8066 32.761 21.3079 32.3763 22.553C32.1669 23.2306 32.0622 23.5695 32.0294 23.7579C32.0146 23.8429 32.0121 23.8611 32.0027 23.9469C31.9819 24.137 31.9863 24.3738 31.9952 24.8474C32.0184 26.0924 32.0226 27.3411 31.9715 28.5853Z" fill="#005760"/>
<path d="M23.7249 6.86699C24.0183 6.97052 24.165 7.02229 24.2472 6.96981C24.273 6.95334 24.2942 6.93171 24.3102 6.90559C24.3611 6.8224 24.3091 6.68371 24.2052 6.40633C24.0221 5.91761 23.801 5.44388 23.4869 5.025C22.6482 3.90674 21.3826 3.5 19.4994 3.5C17.6162 3.5 16.3506 3.90674 15.5119 5.025C15.3416 5.252 15.1986 5.49656 15.074 5.75076C14.9596 5.98433 14.9024 6.10112 14.9424 6.18758C14.9548 6.21422 14.9736 6.23873 14.9962 6.25747C15.0695 6.31831 15.2068 6.29098 15.4813 6.23632C15.9219 6.14858 16.3778 6.08523 16.8489 6.04634C16.9855 6.03506 17.0538 6.02942 17.101 6.01884C17.1324 6.01181 17.117 6.01582 17.1478 6.00665C17.1942 5.99282 17.3551 5.91948 17.677 5.7728C18.036 5.60915 18.5877 5.5 19.4994 5.5C20.2166 5.5 21.0657 5.52947 21.6371 5.98122C21.9641 6.23968 22.1276 6.36892 22.1797 6.39738C22.213 6.41555 22.1982 6.40826 22.2329 6.42354C22.2873 6.44749 22.3657 6.46715 22.5226 6.50646C22.9384 6.61062 23.339 6.73082 23.7249 6.86699Z" fill="#005760"/>
<path fill-rule="evenodd" clip-rule="evenodd" d="M24.0335 34.8908C24.1703 35 24.4726 35 25.0773 35H27.0006C29.5006 35 30.5006 33.5 30.5006 26.5C30.5006 16 29.5006 7.5 18.0006 7.5C12.2524 7.5 9.4768 11.1586 8.28212 16.9296C8.11846 17.7201 8.03663 18.1154 8.14464 18.2597C8.1855 18.3143 8.21172 18.3371 8.27139 18.3701C8.42915 18.4573 8.89459 18.2917 9.82547 17.9604C10.9163 17.5723 12.1766 17.5 13.5013 17.5C15.9717 17.5 17.9836 17.7046 19.4081 19.2241C20.081 19.9418 20.5252 20.8512 20.89 21.869C21.2548 22.8872 21.5838 24.1453 21.9565 25.6362C22.2949 26.9895 22.7307 28.2982 23.2939 29.5736C23.6727 30.4318 24.0013 31.1761 24.0013 32.5L24.0014 32.5739C24.002 32.8792 23.9918 33.1863 23.9574 33.4887C23.8716 34.2411 23.8288 34.6174 23.9218 34.7657C23.9594 34.8257 23.9781 34.8466 24.0335 34.8908ZM12.9699 14.3836C13.1116 14.4781 13.303 14.4398 13.3971 14.2978C13.8367 13.635 14.0891 13.2543 14.4459 12.9769C14.7768 12.7194 15.2836 12.5 16.3944 12.5C17.5053 12.5 18.012 12.7194 18.343 12.9769C18.6997 13.2543 18.9521 13.635 19.3917 14.2978C19.4858 14.4398 19.6773 14.4781 19.819 14.3836L20.9731 13.6142C21.113 13.5209 21.1511 13.3317 21.0588 13.1912C20.6545 12.5752 20.2064 11.8924 19.5709 11.3981C18.7768 10.7806 17.7836 10.5 16.3944 10.5C15.0053 10.5 14.012 10.7806 13.218 11.3981C12.5825 11.8924 12.1343 12.5752 11.73 13.1912C11.6378 13.3317 11.6758 13.5209 11.8157 13.6142L12.9699 14.3836Z" fill="#005760"/>
<path fill-rule="evenodd" clip-rule="evenodd" d="M13.5 19C18.5 19 19 20 20.5 26C21.0548 28.219 21.5514 29.3438 21.911 30.1583C22.2761 30.9853 22.5 31.4924 22.5 32.5C22.5 34.5 22.5 36 13 36C6 36 6 34.5 6 32.5C6 31.3674 6.23117 30.8473 6.51881 30.2003C6.86606 29.4191 7.2956 28.4528 7.5 26C8 20 9 19 13.5 19ZM12.3045 24.22C12.3108 24.2156 12.3171 24.2112 12.3234 24.2071C12.4688 24.1101 12.7444 24 13.3937 24C14.0429 24 14.3185 24.1101 14.464 24.2071C14.4703 24.2112 14.4766 24.2156 14.4829 24.22C14.922 24.5321 15.1416 24.6882 15.2496 24.7084C15.3012 24.7181 15.3048 24.7184 15.3572 24.7167C15.467 24.7133 15.5794 24.6571 15.8042 24.5447L15.9831 24.4553C16.3273 24.2832 16.4994 24.1972 16.5719 24.031C16.5929 23.9829 16.6093 23.9152 16.6126 23.8628C16.6242 23.6819 16.526 23.5478 16.3296 23.2796C16.1295 23.0062 15.8858 22.7512 15.5734 22.5429C14.9688 22.1399 14.2444 22 13.3937 22C12.5429 22 11.8185 22.1399 11.214 22.5429C10.9015 22.7512 10.6579 23.0062 10.4577 23.2796C10.2614 23.5478 10.1632 23.6819 10.1747 23.8628C10.1781 23.9152 10.1945 23.9829 10.2155 24.031C10.288 24.1972 10.4601 24.2832 10.8042 24.4553L10.9831 24.5447C11.2079 24.6571 11.3203 24.7133 11.4301 24.7167C11.4826 24.7184 11.4862 24.7181 11.5378 24.7084C11.6457 24.6882 11.8653 24.5321 12.3045 24.22Z" fill="#005760"/>
</svg>
