<svg width="28" height="28" viewBox="0 0 28 28" fill="none" xmlns="http://www.w3.org/2000/svg">
<path fill-rule="evenodd" clip-rule="evenodd" d="M14.2968 18.0275L14.3251 18.3519C14.418 19.4179 14.4645 19.951 14.7305 20.1048C14.8128 20.1523 14.9053 20.1776 15.0002 20.1783C15.3074 20.1808 15.6171 19.7449 16.2367 18.8731L16.4252 18.6078C16.5131 18.484 16.6026 18.3602 16.6924 18.2359C17.3014 17.3928 17.9256 16.5288 18.2004 15.5176C18.4752 14.5064 18.3743 13.4447 18.2759 12.4086C18.2613 12.2559 18.2469 12.1037 18.2337 11.9524L18.2054 11.628C18.1125 10.5619 18.066 10.0289 17.8 9.87509C17.7177 9.82753 17.6252 9.80231 17.5303 9.80154C17.2231 9.79907 16.9134 10.235 16.2938 11.1068L16.1053 11.372C16.0174 11.4958 15.9279 11.6197 15.8381 11.744C15.2291 12.5871 14.6049 13.4511 14.3301 14.4623C14.0553 15.4735 14.1562 16.5352 14.2546 17.5712C14.2692 17.724 14.2836 17.8761 14.2968 18.0275ZM15.6989 15.3146C15.8779 15.628 16.2767 15.7368 16.5896 15.5575C16.9025 15.3781 17.0111 14.9787 16.832 14.6652C16.653 14.3518 16.2542 14.243 15.9413 14.4224C15.6284 14.6017 15.5199 15.0011 15.6989 15.3146Z" fill="black"/>
<path fill-rule="evenodd" clip-rule="evenodd" d="M3.0693 7.43167C2.83344 6.53574 3.23883 5.6604 3.69537 4.87551C4.1519 4.09062 4.71221 3.30568 5.60662 3.06942C6.50103 2.83315 7.37489 3.23924 8.15845 3.69655C8.94201 4.15386 9.72561 4.71512 9.96147 5.61105C10.0307 5.87409 10.0447 6.13536 10.0183 6.39309C9.99531 6.61808 9.9838 6.73057 10.0172 6.77236C10.0302 6.78861 10.0375 6.79484 10.0557 6.80495C10.1024 6.83096 10.2133 6.80027 10.4351 6.73889C10.9558 6.59477 11.5625 6.65872 12.1679 7.31472C12.3378 7.49877 12.4227 7.59079 12.5055 7.61688C12.5362 7.62655 12.5567 7.63017 12.5889 7.63161C12.6756 7.63549 12.774 7.58475 12.9708 7.48329C17.5843 5.10452 20.6095 6.13538 23.3485 10.9313C26.1798 15.8888 25.4383 19.147 20.5999 21.9197C14.3674 25.4912 9.13562 26.8647 5.78426 20.9965C3.1676 16.4149 4.93096 13.0808 8.7963 10.1392C8.94502 10.0261 9.01938 9.96948 9.05337 9.90113C9.07601 9.85561 9.08566 9.81748 9.08742 9.76666C9.09006 9.69034 9.04773 9.59648 8.96307 9.40875C8.88808 9.24248 8.85059 9.15934 8.81099 9.1384C8.78294 9.12357 8.76458 9.12026 8.73313 9.12438C8.68873 9.13019 8.62677 9.19292 8.50284 9.31838C8.20284 9.62209 7.85166 9.86037 7.42415 9.9733C6.52974 10.2096 5.65589 9.80348 4.87233 9.34617C4.08877 8.88886 3.30517 8.3276 3.0693 7.43167ZM4.96283 6.93148C4.97412 6.97439 5.06251 7.18692 5.85816 7.65128C6.65381 8.11565 6.88198 8.08787 6.92481 8.07656C6.96765 8.06524 7.17981 7.9767 7.64339 7.1797C8.10697 6.3827 8.07925 6.15415 8.06795 6.11124C8.05665 6.06833 7.96826 5.8558 7.17261 5.39144C6.37696 4.92707 6.1488 4.95484 6.10596 4.96616C6.06313 4.97748 5.85096 5.06602 5.38738 5.86302C4.9238 6.66002 4.95153 6.88857 4.96283 6.93148ZM21.6492 11.9053C23.8425 15.7458 23.1798 18.1845 19.3459 20.3816C15.5119 22.5786 13.0773 21.9148 10.884 18.0744C8.69067 14.2339 10.2146 11.3017 13.1873 9.59812C17.0212 7.40107 19.4558 8.06489 21.6492 11.9053Z" fill="black"/>
</svg>
