<svg width="22" height="24" viewBox="0 0 22 24" fill="none" xmlns="http://www.w3.org/2000/svg">
<path d="M19.2502 2C19.2502 0.666667 18.5627 0 16.1563 0C13.7499 0 13.0624 0.666667 13.0624 2C13.0624 3.66667 13.0624 3.66667 16.1563 3.66667C19.2502 3.66667 19.2502 3.66667 19.2502 2Z" fill="black"/>
<path d="M2.81074 6.8648C3.02682 8.87066 4.01415 10.4626 6.06696 10.8772C6.18423 10.9009 6.24287 10.9128 6.27293 10.945C6.28342 10.9563 6.29012 10.9662 6.2965 10.9801C6.31477 11.0198 6.30221 11.0768 6.27709 11.1908C6.26011 11.2679 6.24549 11.3453 6.2333 11.4231C6.16403 11.8648 6.44036 12.0004 6.87531 12C7.3302 11.9995 7.52994 11.8836 7.62129 11.465C7.83228 10.4983 8.60224 9.63604 9.69902 9.3979C10.1641 9.29692 10.3132 9.12742 10.3132 8.66632C10.3132 8.23805 10.1912 7.97273 9.69612 8.04223C8.94936 8.14706 8.29608 8.43955 7.76215 8.85347C7.61241 8.96955 7.53754 9.02759 7.47992 9.02058C7.46001 9.01816 7.44556 9.01344 7.42819 9.0037C7.37792 8.9755 7.35497 8.88732 7.30907 8.71095C6.7751 6.65895 5.4632 5.95194 3.98464 5.74319C3.95383 5.73884 3.92253 5.73415 3.89088 5.72941C3.57271 5.68174 3.21934 5.6288 2.96982 5.86157C2.71916 6.0954 2.76123 6.44736 2.79864 6.76025C2.80288 6.79568 2.80705 6.8306 2.81074 6.8648Z" fill="black"/>
<path d="M0 16.6666C0 13.6666 1.37506 12 3.43765 12C4.64589 12 5.26432 12.2287 5.77665 12.4182C6.13892 12.5522 6.44813 12.6666 6.87531 12.6666C7.30249 12.6666 7.6117 12.5522 7.97397 12.4182C8.48629 12.2287 9.10472 12 10.313 12C12.3756 12 13.7506 13.6666 13.7506 16.6666C13.7506 19.6666 11.688 24 8.9379 24C8.13241 24 7.79876 23.7712 7.52236 23.5817C7.32692 23.4477 7.16009 23.3333 6.87531 23.3333C6.59052 23.3333 6.4237 23.4477 6.22826 23.5817C5.95185 23.7712 5.61821 24 4.81272 24C2.06259 24 0 19.6666 0 16.6666Z" fill="black"/>
<path d="M10.7169 10.0431C10.5177 10.1883 10.418 10.2609 10.3817 10.3383C10.3697 10.3639 10.3614 10.3898 10.3563 10.4175C10.3408 10.5011 10.3621 10.5633 10.4049 10.6876C10.4172 10.7233 10.4304 10.7563 10.4443 10.787C10.474 10.8522 10.4889 10.8847 10.5422 10.932C10.556 10.9443 10.5831 10.9637 10.5993 10.973C10.6615 11.0086 10.725 11.016 10.852 11.0307C11.9755 11.1614 12.9438 11.7052 13.6352 12.6151C14.4096 13.6341 14.7816 15.0344 14.7816 16.6666C14.7816 18.3547 14.2116 20.3577 13.2706 21.9544C13.0736 22.2887 12.8501 22.6213 12.6009 22.9373C12.3396 23.2686 12.2089 23.4342 12.2384 23.5813C12.2475 23.6269 12.2674 23.672 12.295 23.7099C12.3841 23.8323 12.5692 23.8524 12.9394 23.8925C13.743 23.9795 14.7908 24.0001 16.1567 24.0001C21.6569 24.0001 22.0007 23.6667 22.0007 20.0001C22.0007 19.219 21.7647 19.0099 21.5693 18.8366C21.4311 18.7141 21.3131 18.6096 21.3131 18.3334C21.3131 18.0573 21.4311 17.9527 21.5693 17.8302C21.7647 17.6569 22.0007 17.4478 22.0007 16.6667C22.0007 15.8857 21.7647 15.6766 21.5693 15.5033C21.4311 15.3808 21.3131 15.2762 21.3131 15.0001C21.3131 14.7239 21.4311 14.6194 21.5693 14.4969C21.7647 14.3236 22.0007 14.1145 22.0007 13.3334C22.0007 12.5524 21.7647 12.3432 21.5693 12.17C21.4311 12.0475 21.3131 11.9429 21.3131 11.6667C21.3131 11.3906 21.4311 11.286 21.5693 11.1635C21.7647 10.9903 22.0007 10.7811 22.0007 10.0001C22.0007 5.33341 20.9704 4.66675 16.1576 4.66675C12.7801 4.66675 11.264 4.82594 10.6607 6.73273C10.6127 6.88447 10.5887 6.96035 10.5976 7.03083C10.6013 7.05997 10.6039 7.07114 10.6138 7.09888C10.6377 7.16602 10.7326 7.26439 10.9223 7.46112C10.9464 7.48613 10.97 7.51247 10.9931 7.5402C11.3248 7.93946 11.3441 8.42456 11.3441 8.66629C11.3441 8.96969 11.3027 9.41739 10.9771 9.80179C10.8965 9.89701 10.8084 9.97648 10.7169 10.0431Z" fill="black"/>
</svg>
