<svg width="40" height="40" viewBox="0 0 40 40" fill="none" xmlns="http://www.w3.org/2000/svg">
<path fill-rule="evenodd" clip-rule="evenodd" d="M27.2293 7.62128C26.8357 7.88711 26.6389 8.02002 26.4547 8.06138C26.3854 8.07697 26.3411 8.08265 26.27 8.0851C26.0814 8.09159 25.8474 8.00917 25.3794 7.84433C25.2702 7.80586 25.1599 7.76868 25.0486 7.73277C24.504 7.55717 24.2317 7.46937 24.0712 7.32287C24.0116 7.2684 23.9765 7.22877 23.9298 7.16287C23.8041 6.98563 23.7523 6.71487 23.6487 6.17336C23.0956 3.28185 22.2524 3 20 3C17.7476 3 16.9044 3.28185 16.3513 6.17336C16.2477 6.71487 16.1959 6.98563 16.0702 7.16287C16.0235 7.22877 15.9884 7.2684 15.9288 7.32287C15.7683 7.46937 15.496 7.55717 14.9514 7.73277C14.8401 7.76868 14.7298 7.80586 14.6206 7.84433C14.1526 8.00917 13.9186 8.09159 13.73 8.0851C13.6589 8.08265 13.6146 8.07697 13.5453 8.06138C13.3611 8.02002 13.1643 7.88711 12.7707 7.62128C10.3603 5.99327 9.56481 6.39369 7.97919 7.97931C6.39355 9.56495 5.99314 10.3604 7.62121 12.7709C7.88703 13.1645 8.01994 13.3613 8.0613 13.5454C8.07689 13.6148 8.08258 13.6591 8.08502 13.7302C8.09152 13.9188 8.0091 14.1528 7.84427 14.6208C7.80582 14.7299 7.76866 14.8401 7.73277 14.9514C7.55717 15.496 7.46937 15.7683 7.32287 15.9288C7.2684 15.9884 7.22877 16.0235 7.16287 16.0702C6.98563 16.1959 6.71487 16.2477 6.17336 16.3513C3.28185 16.9044 3 17.7476 3 20C3 22.2524 3.28185 23.0956 6.17336 23.6487C6.71487 23.7523 6.98563 23.8041 7.16287 23.9298C7.22877 23.9765 7.26839 24.0116 7.32287 24.0712C7.46937 24.2317 7.55717 24.504 7.73277 25.0486C7.76867 25.1599 7.80586 25.2702 7.84432 25.3794C8.00916 25.8474 8.09158 26.0813 8.08509 26.27C8.08264 26.341 8.07695 26.3853 8.06137 26.4547C8.02001 26.6389 7.88709 26.8357 7.62126 27.2292C5.99313 29.6398 6.39353 30.4353 7.97919 32.0209C9.56486 33.6066 10.3603 34.007 12.771 32.3788C13.1645 32.113 13.3613 31.9801 13.5455 31.9387C13.6148 31.9231 13.6592 31.9174 13.7302 31.915C13.9188 31.9085 14.1528 31.9909 14.6208 32.1557C14.7299 32.1942 14.8401 32.2313 14.9514 32.2672C15.496 32.4428 15.7683 32.5306 15.9288 32.6771C15.9884 32.7316 16.0235 32.7712 16.0702 32.8371C16.1959 33.0144 16.2477 33.2851 16.3513 33.8266C16.9044 36.7181 17.7476 37 20 37C22.2524 37 23.0956 36.7181 23.6487 33.8266C23.7523 33.2851 23.8041 33.0144 23.9298 32.8371C23.9765 32.7712 24.0116 32.7316 24.0712 32.6771C24.2317 32.5306 24.504 32.4428 25.0486 32.2672C25.1599 32.2313 25.2701 32.1942 25.3792 32.1557C25.8472 31.9909 26.0812 31.9085 26.2698 31.915C26.3408 31.9174 26.3852 31.9231 26.4545 31.9387C26.6387 31.9801 26.8355 32.113 27.229 32.3788C29.6397 34.007 30.4351 33.6066 32.0208 32.0209C33.6065 30.4353 34.0069 29.6398 32.3787 27.2292C32.1129 26.8357 31.98 26.6389 31.9386 26.4547C31.923 26.3853 31.9174 26.341 31.9149 26.27C31.9084 26.0813 31.9908 25.8474 32.1557 25.3794C32.1941 25.2702 32.2313 25.1599 32.2672 25.0486C32.4428 24.504 32.5306 24.2317 32.6771 24.0712C32.7316 24.0116 32.7712 23.9765 32.8371 23.9298C33.0144 23.8041 33.2851 23.7523 33.8266 23.6487C36.7181 23.0956 37 22.2524 37 20C37 17.7476 36.7181 16.9044 33.8266 16.3513C33.2851 16.2477 33.0144 16.1959 32.8371 16.0702C32.7712 16.0235 32.7316 15.9884 32.6771 15.9288C32.5306 15.7683 32.4428 15.496 32.2672 14.9514C32.2313 14.8401 32.1942 14.7299 32.1557 14.6208C31.9909 14.1528 31.9085 13.9188 31.915 13.7302C31.9174 13.6591 31.9231 13.6148 31.9387 13.5454C31.9801 13.3613 32.113 13.1645 32.3788 12.7709C34.0069 10.3604 33.6065 9.56495 32.0208 7.97931C30.4352 6.39369 29.6397 5.99327 27.2293 7.62128ZM27 20C27 15.445 24.555 13 20 13C15.445 13 13 15.445 13 20C13 24.555 15.445 27 20 27C24.555 27 27 24.555 27 20Z" fill="#005760"/>
</svg>
